<?xml version="1.0" encoding="UTF-8" standalone="no"?>
<svg
   xmlns:dc="http://purl.org/dc/elements/1.1/"
   xmlns:cc="http://creativecommons.org/ns#"
   xmlns:rdf="http://www.w3.org/1999/02/22-rdf-syntax-ns#"
   xmlns:svg="http://www.w3.org/2000/svg"
   xmlns="http://www.w3.org/2000/svg"
   xmlns:sodipodi="http://sodipodi.sourceforge.net/DTD/sodipodi-0.dtd"
   xmlns:inkscape="http://www.inkscape.org/namespaces/inkscape"
   width="1900"
   height="300"
   viewBox="-154.113 -62.153 1509.226 302.307"
   id="svg2"
   version="1.1"
   inkscape:version="0.91 r13725"
   sodipodi:docname="viewLogoWhite.svg">
  <metadata
     id="metadata14">
    <rdf:RDF>
      <cc:Work
         rdf:about="">
        <dc:format>image/svg+xml</dc:format>
        <dc:type
           rdf:resource="http://purl.org/dc/dcmitype/StillImage" />
        <dc:title></dc:title>
      </cc:Work>
    </rdf:RDF>
  </metadata>
  <sodipodi:namedview
     pagecolor="#ffffff"
     bordercolor="#666666"
     borderopacity="1"
     objecttolerance="10"
     gridtolerance="10"
     guidetolerance="10"
     inkscape:pageopacity="0"
     inkscape:pageshadow="2"
     inkscape:window-width="1366"
     inkscape:window-height="705"
     id="namedview12"
     showgrid="false"
     inkscape:zoom="0.2425"
     inkscape:cx="868.92959"
     inkscape:cy="150"
     inkscape:window-x="-8"
     inkscape:window-y="-8"
     inkscape:window-maximized="1"
     inkscape:current-layer="svg2" />
  <defs
     id="defs4">
    <clipPath
       id="clip-path">
      <rect
         width="1341"
         height="278"
         id="rect7"
         x="0"
         y="0" />
    </clipPath>
  </defs>
  <path
     style="fill:#FFFFFF;stroke:none"
     id="path3342"
     d="m -41.276572,-50.23008 c -21.664254,5.792643 -45.993286,28.847281 -53.292038,50.51170375 -3.128136,9.38406205 -4.286621,21.89612425 -2.548807,29.65824925 0.695161,3.35972 4.634115,15.408383 8.688899,26.646059 12.743861,35.335021 19.463353,63.487178 21.201106,89.554008 0.347581,6.37187 1.158485,11.46938 1.62181,11.46938 1.390347,0 28.499889,-29.77408 37.30455,-41.12762 C 0.19863688,79.872303 12.363252,48.823825 10.393645,17.543642 9.4670139,3.6413438 7.0340909,-6.0902662 1.4730669,-17.90721 -4.3196111,-30.419291 -12.081705,-40.61432 -20.654703,-46.870341 c -7.878012,-5.792641 -10.194999,-6.14017 -20.621869,-3.359739 z"
     inkscape:connector-curvature="0" />
  <path
     style="fill:#FFFFFF;stroke:none"
     id="path3344"
     d="m -255.02435,-31.230258 c -10.19506,1.158536 -24.44499,4.518256 -31.28024,7.414557 l -4.5182,1.853654 0.69516,13.6705768 c 2.20123,41.4752132 23.1705,73.4504922 59.08466,90.0174032 4.63421,2.08534 16.6829,6.25603 26.87795,9.26821 79.01135,23.054627 98.70621,32.322837 123.266919,57.810397 4.634201,4.86578 8.688907,8.68895 8.804834,8.57308 0.810914,-0.92681 -3.475472,-26.06681 -6.371946,-37.5362 -9.731468,-37.883777 -31.280137,-79.12727 -53.871287,-103.340445 -21.43276,-23.0546602 -52.36541,-40.432526 -81.32858,-45.877599 -12.16444,-2.201183 -30.23749,-3.01217 -41.35927,-1.853634 z"
     inkscape:connector-curvature="0" />
  <path
     style="fill:#FFFFFF;stroke:none"
     id="path3346"
     d="m 151.39759,14.767959 c -4.46857,2.757166 -6.08479,5.609391 -6.08479,10.838507 0,4.183258 0.38032,5.134019 3.70795,8.366556 3.32763,3.327614 4.18323,3.707907 8.55663,3.707907 4.18343,0 5.32417,-0.475371 8.27149,-3.137458 10.93369,-9.982824 -1.90136,-27.3814832 -14.45128,-19.775512 z"
     inkscape:connector-curvature="0" />
  <path
     style="fill:#FFFFFF;stroke:none"
     id="path3348"
     d="m 197.0335,13.912296 c -3.8981,1.52119 -7.03558,6.465054 -7.03558,11.028643 0,8.17642 4.46857,12.73999 12.6449,12.73999 9.41243,0 15.21189,-10.553272 10.17306,-18.729692 -3.13749,-5.13404 -10.07789,-7.415815 -15.78238,-5.038941 z"
     inkscape:connector-curvature="0" />
  <path
     style="fill:#FFFFFF;stroke:none"
     id="path3354"
     d="m 146.26357,47.093304 c -1.42606,2.852244 -1.33109,118.177726 0.18957,119.698916 1.52105,1.5212 20.91638,1.5212 22.43744,0 0.8558,-0.85568 1.14093,-15.49717 1.14093,-59.80192 0,-52.100869 -0.18956,-58.851177 -1.52124,-60.18221 -1.14075,-1.235976 -3.61277,-1.521191 -11.3138,-1.521191 -8.84197,0 -9.98291,0.190157 -10.93369,1.806405 z"
     inkscape:connector-curvature="0" />
  <path
     style="fill:#FFFFFF;stroke:none"
     id="path3356"
     d="m 191.04368,46.617933 c -0.76062,0.855683 -0.95078,17.683869 -0.8556,61.037897 l 0.28513,59.80193 11.40898,0 11.40897,0 0.28534,-60.27732 c 0.18955,-47.632341 0,-60.467429 -0.95078,-61.132955 -2.18671,-1.331034 -20.34613,-0.950742 -21.58204,0.570448 z"
     inkscape:connector-curvature="0" />
  <path
     style="fill:#FFFFFF;stroke:none"
     id="path3358"
     d="m 40.921015,91.588223 c 0.28512,44.399837 0.3803,45.540737 2.47183,51.435347 1.23611,3.32762 3.13747,7.60597 4.37358,9.50746 8.84178,13.78583 26.43074,19.87059 47.53729,16.35283 3.13747,-0.47539 5.894625,-0.66552 6.179765,-0.47539 0.18957,0.28524 0.38031,2.37687 0.38031,4.65867 0,11.50402 -9.222275,14.45134 -32.895835,10.5533 -10.26803,-1.61629 -14.16614,-1.14092 -19.77544,2.66206 -3.42282,2.2818 -8.84198,10.45822 -9.6026,14.45134 -0.47529,2.09166 -0.0958,2.37687 4.37339,3.32761 11.78929,2.47196 35.55803,4.94389 44.30482,4.46851 16.733155,-0.85566 26.715845,-6.65523 32.990805,-19.39521 l 3.61297,-7.32076 0.28514,-67.88324 0.28513,-67.978323 -3.99308,0.665506 c -4.75371,0.760605 -11.97944,4.373433 -14.83159,7.415834 -4.94386,5.324176 -5.03904,5.989683 -5.03904,52.005803 l 0,42.68847 -6.179765,0.66553 c -20.72625,2.2818 -27.76182,-2.18672 -29.94853,-18.82477 -0.47529,-3.70791 -0.95078,-21.20163 -0.95078,-38.695357 0,-29.663276 -0.0958,-32.04013 -1.80638,-34.797295 -3.5178,-5.704488 -12.83504,-10.838507 -19.77545,-10.838507 l -2.28188,0 0.28534,45.350582 z"
     inkscape:connector-curvature="0" />
  <text
     xml:space="preserve"
     style="font-style:normal;font-variant:normal;font-weight:normal;font-stretch:normal;font-size:123.6115799px;line-height:125%;font-family:'Faster One';-inkscape-font-specification:'Faster One';letter-spacing:0px;word-spacing:0px;fill:#FFFFFF;fill-opacity:1;stroke:none;stroke-width:1px;stroke-linecap:butt;stroke-linejoin:miter;stroke-opacity:1"
     x="251.24336"
     y="172.02719"
     id="text3398"
     sodipodi:linespacing="125%"><tspan
       sodipodi:role="line"
       id="tspan3400"
       x="251.24336"
       y="172.02719"
       style="font-size:247.22315979px">Z</tspan></text>
  <text
     xml:space="preserve"
     style="font-style:normal;font-variant:normal;font-weight:normal;font-stretch:normal;font-size:147.54534912px;line-height:125%;font-family:Baumans;-inkscape-font-specification:Baumans;letter-spacing:0px;word-spacing:0px;fill:#FFFFFF;fill-opacity:1;stroke:none;stroke-width:1px;stroke-linecap:butt;stroke-linejoin:miter;stroke-opacity:1"
     x="441.63809"
     y="134.76727"
     id="text3402"
     sodipodi:linespacing="125%"><tspan
       sodipodi:role="line"
       id="tspan3404"
       x="441.63809"
       y="134.76727"
       style="font-style:normal;font-variant:normal;font-weight:normal;font-stretch:normal;font-family:Baumans;-inkscape-font-specification:Baumans"><tspan
         id="tspan4379"
         style="font-style:normal;font-variant:normal;font-weight:normal;font-stretch:normal;font-family:Actor;-inkscape-font-specification:Actor">::{easy\</tspan><tspan
         id="tspan4355"
         style="font-style:normal;font-variant:normal;font-weight:normal;font-stretch:normal;font-family:Acme;-inkscape-font-specification:Acme">view</tspan><tspan
         style="font-style:normal;font-variant:normal;font-weight:normal;font-stretch:normal;font-family:Actor;-inkscape-font-specification:Actor"
         id="tspan4353">}(V1.0)</tspan></tspan></text>
  <path
     style="fill:#FFFFFF;stroke:none"
     id="path3354-7"
     d="m 707.52507,173.8834 c -0.40267,0.62503 -0.37591,25.89814 0.054,26.2315 0.42942,0.33337 5.90459,0.33337 6.33401,0 0.2416,-0.18756 0.32204,-3.39613 0.32204,-13.10533 0,-11.4177 -0.054,-12.89698 -0.42942,-13.18869 -0.32204,-0.27084 -1.01981,-0.33334 -3.19394,-0.33334 -2.49572,0 -2.81803,0.0417 -3.08621,0.39586 z"
     inkscape:connector-curvature="0" />
  <path
     style="fill:#FFFFFF;stroke:none"
     id="path3356-5"
     d="m 720.16617,173.77922 c -0.21476,0.18756 -0.26862,3.87534 -0.24169,13.37619 l 0.0802,13.10534 3.22069,0 3.2207,0 0.0802,-13.20952 c 0.054,-10.43843 0,-13.25118 -0.26818,-13.39702 -0.61733,-0.29169 -5.74379,-0.20835 -6.09276,0.12491 z"
     inkscape:connector-curvature="0" />
  <path
     style="fill:#FFFFFF;stroke:none"
     id="path3358-7"
     d="m 677.78703,183.63426 c 0.0802,9.73003 0.10773,9.98005 0.69795,11.27183 0.34898,0.72923 0.88551,1.66681 1.23475,2.08353 2.49573,3.02111 7.46117,4.35455 13.41945,3.58364 0.88577,-0.10417 1.66399,-0.14586 1.74453,-0.10417 0.054,0.0624 0.10781,0.52088 0.10781,1.02093 0,2.52106 -2.60337,3.16693 -9.28636,2.31271 -2.89869,-0.3542 -3.99887,-0.25003 -5.58259,0.58339 -0.96613,0.50004 -2.49599,2.29188 -2.71066,3.16696 -0.1337,0.45834 -0.0262,0.52085 1.23466,0.72922 3.32807,0.54171 10.03769,1.08342 12.5071,0.97925 4.72353,-0.18756 7.54183,-1.45848 9.31302,-4.25039 l 1.02008,-1.6043 0.0802,-14.87634 0.0802,-14.89715 -1.12737,0.14586 c -1.34212,0.16681 -3.38176,0.95843 -4.18682,1.62513 -1.39556,1.16677 -1.42249,1.31264 -1.42249,11.39686 l 0,9.355 -1.74452,0.14587 c -5.851,0.50003 -7.83712,-0.47921 -8.45458,-4.12536 -0.13361,-0.81257 -0.26836,-4.64624 -0.26836,-8.47995 0,-6.50056 -0.0261,-7.02145 -0.50995,-7.62565 -0.99315,-1.25015 -3.62318,-2.37522 -5.58264,-2.37522 l -0.64408,0 0.0802,9.93838 z"
     inkscape:connector-curvature="0" />
  <text
     xml:space="preserve"
     style="font-style:normal;font-variant:normal;font-weight:normal;font-stretch:normal;font-size:365.50723267px;line-height:125%;font-family:Texas;-inkscape-font-specification:Texas;letter-spacing:0px;word-spacing:0px;opacity:1;fill:#FFFFFF;fill-opacity:1;stroke:#0070bb;stroke-width:9.41037083;stroke-linecap:butt;stroke-linejoin:miter;stroke-miterlimit:4;stroke-dasharray:none;stroke-opacity:1"
     x="184.4492"
     y="195.05025"
     id="text3437"
     sodipodi:linespacing="125%"><tspan
       sodipodi:role="line"
       id="tspan3439"
       x="184.4492"
       y="195.05025"
       style="font-style:normal;font-variant:normal;font-weight:normal;font-stretch:normal;font-family:Timmana;-inkscape-font-specification:Timmana;stroke-width:9.41037083;stroke-miterlimit:4;stroke-dasharray:none">+</tspan></text>
  <text
     xml:space="preserve"
     style="font-style:normal;font-weight:normal;font-size:37.72841644px;line-height:125%;font-family:sans-serif;letter-spacing:0px;word-spacing:0px;fill:#FFFFFF;fill-opacity:1;stroke:none;stroke-width:1px;stroke-linecap:butt;stroke-linejoin:miter;stroke-opacity:1"
     x="475.18192"
     y="237.23781"
     id="text4381"
     sodipodi:linespacing="125%"
     transform="scale(1.187011,0.84245217)"><tspan
       sodipodi:role="line"
       x="475.18192"
       y="237.23781"
       id="tspan4387"
       style="font-style:normal;font-variant:normal;font-weight:normal;font-stretch:normal;font-family:Tillana;-inkscape-font-specification:Tillana">class     implements view { return view-&gt;ier;}</tspan></text>
  <path
     style="opacity:1;fill:#FFFFFF;stroke:#0070bb;stroke-width:8.02740669;stroke-miterlimit:4;stroke-dasharray:none;stroke-opacity:1"
     id="path4405"
     sodipodi:type="arc"
     sodipodi:cx="-201.48781"
     sodipodi:cy="27.554283"
     sodipodi:rx="25.80238"
     sodipodi:ry="28.669313"
     sodipodi:start="0"
     sodipodi:end="3.0807981"
     d="m -175.68543,27.554283 a 25.80238,28.669313 0 0 1 -25.01818,28.656069 25.80238,28.669313 0 0 1 -26.53891,-26.914204 l 25.75471,-1.741865 z" />
  <path
     style="opacity:1;fill:#FFFFFF;stroke:#0070bb;stroke-width:8.02740669;stroke-miterlimit:4;stroke-dasharray:none;stroke-opacity:1"
     id="path4407"
     sodipodi:type="arc"
     sodipodi:cx="-38.455135"
     sodipodi:cy="21.247101"
     sodipodi:rx="24.846733"
     sodipodi:ry="29.624954"
     sodipodi:start="0"
     sodipodi:end="3.0808028"
     d="M -13.608402,21.247101 A 24.846733,29.624954 0 0 1 -37.700037,50.858372 24.846733,29.624954 0 0 1 -63.255973,23.046888 l 24.800838,-1.799787 z" />
  <path
     style="opacity:1;fill:#FFFFFF;stroke:#0070bb;stroke-width:8.26144409;stroke-miterlimit:4;stroke-dasharray:none;stroke-opacity:1"
     id="path4409"
     sodipodi:type="arc"
     sodipodi:cx="-99.460701"
     sodipodi:cy="151.19374"
     sodipodi:rx="114.0866"
     sodipodi:ry="74.746407"
     sodipodi:start="0"
     sodipodi:end="3.0808028"
     d="M 14.6259,151.19374 A 114.0866,74.746407 0 0 1 -95.993581,225.90562 114.0866,74.746407 0 0 1 -213.33657,155.73477 l 113.875869,-4.54103 z" />
</svg>
