<?xml version="1.0" standalone="no"?>
<!DOCTYPE svg PUBLIC "-//W3C//DTD SVG 20010904//EN"
 "http://www.w3.org/TR/2001/REC-SVG-20010904/DTD/svg10.dtd">
<svg version="1.0" xmlns="http://www.w3.org/2000/svg"
 width="1341.000000pt" height="278.000000pt" viewBox="0 0 1341.000000 278.000000"
 preserveAspectRatio="xMidYMid meet">
<metadata>
Created by potrace 1.13, written by Peter Selinger 2001-2015
</metadata>
<g transform="translate(0.000000,278.000000) scale(0.100000,-0.100000)"
fill="#FFFFFF" stroke="none">
<path d="M2151 2764 c-187 -50 -397 -249 -460 -436 -27 -81 -37 -189 -22 -256
6 -29 40 -133 75 -230 110 -305 168 -548 183 -773 3 -55 10 -99 14 -99 12 0
246 257 322 355 246 316 351 584 334 854 -8 120 -29 204 -77 306 -50 108 -117
196 -191 250 -68 50 -88 53 -178 29z"/>
<path d="M306 2600 c-88 -10 -211 -39 -270 -64 l-39 -16 6 -118 c19 -358 200
-634 510 -777 40 -18 144 -54 232 -80 682 -199 852 -279 1064 -499 40 -42 75
-75 76 -74 7 8 -30 225 -55 324 -84 327 -270 683 -465 892 -185 199 -452 349
-702 396 -105 19 -261 26 -357 16z"/>
<path d="M4364 2381 c-47 -29 -64 -59 -64 -114 0 -44 4 -54 39 -88 35 -35 44
-39 90 -39 44 0 56 5 87 33 115 105 -20 288 -152 208z"/>
<path d="M4844 2390 c-41 -16 -74 -68 -74 -116 0 -86 47 -134 133 -134 99 0
160 111 107 197 -33 54 -106 78 -166 53z"/>
<path d="M5518 2209 c-113 -12 -183 -66 -208 -159 -6 -24 -9 -265 -8 -656 l3
-619 74 -3 c53 -2 77 1 82 10 5 7 9 212 9 456 l0 442 149 0 c82 0 156 3 165 6
12 5 16 20 16 64 0 44 -4 59 -16 64 -9 3 -83 6 -166 6 l-150 0 4 110 c4 148
-1 144 181 150 l142 5 3 53 c3 47 1 53 -20 61 -33 12 -181 18 -260 10z"/>
<path d="M12672 2188 c-9 -9 -12 -167 -12 -702 0 -380 4 -697 9 -704 5 -9 29
-12 82 -10 l74 3 5 239 5 238 195 -241 194 -241 93 0 c83 0 93 2 93 18 0 10
-95 132 -210 272 -116 140 -209 257 -208 262 2 4 97 109 211 233 135 146 207
232 205 243 -3 15 -16 17 -93 17 l-90 0 -195 -219 -195 -219 -5 409 -5 409
-70 3 c-46 2 -74 -1 -83 -10z"/>
<path d="M4310 2041 c-15 -30 -14 -1243 2 -1259 16 -16 220 -16 236 0 9 9 12
163 12 629 0 548 -2 619 -16 633 -12 13 -38 16 -119 16 -93 0 -105 -2 -115
-19z"/>
<path d="M4781 2046 c-8 -9 -10 -186 -9 -642 l3 -629 120 0 120 0 3 634 c2
501 0 636 -10 643 -23 14 -214 10 -227 -6z"/>
<path d="M3202 1573 c3 -467 4 -479 26 -541 13 -35 33 -80 46 -100 93 -145
278 -209 500 -172 33 5 62 7 65 5 2 -3 4 -25 4 -49 0 -121 -97 -152 -346 -111
-108 17 -149 12 -208 -28 -36 -24 -93 -110 -101 -152 -5 -22 -1 -25 46 -35
124 -26 374 -52 466 -47 176 9 281 70 347 204 l38 77 3 714 3 715 -42 -7 c-50
-8 -126 -46 -156 -78 -52 -56 -53 -63 -53 -547 l0 -449 -65 -7 c-218 -24 -292
23 -315 198 -5 39 -10 223 -10 407 0 312 -1 337 -19 366 -37 60 -135 114 -208
114 l-24 0 3 -477z"/>
<path d="M6148 1820 c-37 -5 -91 -16 -120 -25 -96 -32 -88 16 -88 -524 0 -262
4 -482 9 -489 5 -9 29 -12 82 -10 l74 3 3 442 2 442 23 7 c12 4 81 10 152 13
l130 6 0 70 0 70 -100 1 c-55 1 -130 -2 -167 -6z"/>
<path d="M6741 1820 c-147 -31 -252 -143 -286 -307 -19 -90 -19 -355 -1 -444
49 -230 207 -333 480 -315 125 9 297 41 308 58 4 7 8 226 8 486 l0 472 -26 10
c-88 34 -394 59 -483 40z m302 -147 l37 -6 0 -377 0 -378 -47 -6 c-211 -24
-272 -16 -339 46 -69 64 -79 106 -79 338 0 222 10 272 71 334 50 51 108 67
224 61 52 -3 112 -8 133 -12z"/>
<path d="M7607 1820 c-94 -24 -175 -93 -209 -180 -21 -53 -22 -72 -26 -439 -2
-210 -1 -394 2 -407 6 -24 9 -25 84 -22 l77 3 5 400 c5 379 6 402 25 435 31
53 74 70 178 70 102 0 152 -17 167 -55 6 -16 10 -187 10 -428 0 -221 4 -408 9
-415 5 -9 29 -12 82 -10 l74 3 5 422 5 423 28 27 c26 26 33 28 131 31 83 3
112 0 141 -13 70 -34 69 -33 75 -485 l5 -405 80 0 80 0 0 410 0 410 -33 68
c-36 72 -68 103 -148 139 -44 21 -64 23 -189 23 -137 0 -142 -1 -203 -31 -36
-18 -65 -27 -69 -21 -3 5 -26 19 -52 30 -37 16 -71 21 -171 23 -69 2 -142 -1
-163 -6z"/>
<path d="M9040 1820 c-71 -15 -144 -56 -193 -109 -91 -97 -117 -188 -117 -411
0 -238 25 -333 114 -428 89 -95 207 -129 409 -118 113 6 273 29 284 40 11 10
14 101 5 114 -8 12 -32 12 -140 2 -271 -25 -393 -3 -449 81 -30 45 -53 133
-53 202 l0 47 329 0 c283 0 330 2 341 15 19 23 6 225 -20 307 -35 115 -112
198 -218 239 -65 24 -219 34 -292 19z m211 -151 c89 -27 139 -105 152 -236 l7
-63 -257 0 -256 0 6 67 c11 119 64 196 156 229 45 16 142 18 192 3z"/>
<path d="M11410 1819 c-116 -23 -229 -118 -270 -226 -33 -88 -40 -143 -40
-308 0 -224 33 -336 127 -427 145 -141 438 -142 592 -3 50 45 98 138 116 222
19 89 19 336 1 425 -37 173 -142 283 -304 317 -61 13 -157 13 -222 0z m201
-151 c56 -16 112 -69 140 -130 23 -50 24 -64 24 -248 0 -182 -1 -198 -23 -245
-41 -89 -101 -132 -197 -142 -116 -12 -211 39 -256 139 -23 50 -24 64 -24 248
0 182 1 198 23 246 43 95 115 142 221 143 29 1 71 -4 92 -11z"/>
<path d="M12282 1819 c-83 -10 -167 -35 -186 -55 -14 -14 -16 -71 -14 -502 l3
-487 80 0 80 0 3 440 c1 241 6 443 11 448 5 5 71 12 148 16 l138 6 3 73 3 72
-103 -1 c-57 -1 -131 -5 -166 -10z"/>
<path d="M9708 1809 c-17 -9 -18 -37 -18 -347 0 -185 5 -366 10 -402 22 -138
96 -237 209 -282 75 -29 243 -31 349 -4 70 18 74 18 145 0 105 -27 273 -25
348 4 72 28 128 77 162 141 50 91 57 152 57 533 0 395 7 368 -89 368 -85 0
-81 17 -81 -379 0 -376 -4 -410 -54 -476 -39 -51 -97 -69 -204 -62 -48 3 -95
8 -104 12 -17 7 -18 37 -18 440 0 495 5 465 -85 465 -93 0 -85 45 -85 -455 l0
-443 -50 -11 c-126 -27 -242 -5 -288 54 -47 60 -52 104 -52 476 0 397 4 379
-83 379 -29 0 -60 -5 -69 -11z"/>
<path d="M1382 1189 c-24 -38 -87 -127 -141 -199 -101 -134 -181 -274 -227
-396 -57 -153 -91 -369 -79 -513 l7 -83 58 6 c89 10 235 53 325 95 292 137
496 399 550 708 l15 86 -42 55 c-73 94 -220 208 -363 280 l-61 30 -42 -69z"/>
</g>
</svg>
